<?xml version="1.0" encoding="utf-8" standalone="no"?>
<!DOCTYPE svg PUBLIC "-//W3C//DTD SVG 1.1//EN"
  "http://www.w3.org/Graphics/SVG/1.1/DTD/svg11.dtd">
<svg xmlns:xlink="http://www.w3.org/1999/xlink" width="851.4pt" height="568.8pt" viewBox="0 0 851.4 568.8" xmlns="http://www.w3.org/2000/svg" version="1.1">
 <metadata>
  <rdf:RDF xmlns:dc="http://purl.org/dc/elements/1.1/" xmlns:cc="http://creativecommons.org/ns#" xmlns:rdf="http://www.w3.org/1999/02/22-rdf-syntax-ns#">
   <cc:Work>
    <dc:type rdf:resource="http://purl.org/dc/dcmitype/StillImage"/>
    <dc:date>2025-08-14T23:32:59.762464</dc:date>
    <dc:format>image/svg+xml</dc:format>
    <dc:creator>
     <cc:Agent>
      <dc:title>Matplotlib v3.10.5, https://matplotlib.org/</dc:title>
     </cc:Agent>
    </dc:creator>
   </cc:Work>
  </rdf:RDF>
 </metadata>
 <defs>
  <style type="text/css">*{stroke-linejoin: round; stroke-linecap: butt}</style>
 </defs>
 <g id="figure_1">
  <g id="patch_1">
   <path d="M 0 568.8 
L 851.4 568.8 
L 851.4 0 
L 0 0 
z
" style="fill: #ffffff"/>
  </g>
  <g id="axes_1">
   <g id="patch_2">
    <path d="M 7.2 561.6 
L 844.2 561.6 
L 844.2 7.2 
L 7.2 7.2 
z
" style="fill: #ffffff"/>
   </g>
   <g id="line2d_1">
    <path d="M 7.2 561.6 
L 844.2 561.6 
" clip-path="url(#pab1f404d2b)" style="fill: none; stroke: #d3d3d3; stroke-width: 0.5; stroke-linecap: square"/>
   </g>
   <g id="line2d_2">
    <path d="M 7.2 548.706977 
L 844.2 548.706977 
" clip-path="url(#pab1f404d2b)" style="fill: none; stroke: #d3d3d3; stroke-width: 0.5; stroke-linecap: square"/>
   </g>
   <g id="line2d_3">
    <path d="M 7.2 535.813953 
L 844.2 535.813953 
" clip-path="url(#pab1f404d2b)" style="fill: none; stroke: #d3d3d3; stroke-width: 0.5; stroke-linecap: square"/>
   </g>
   <g id="line2d_4">
    <path d="M 7.2 522.92093 
L 844.2 522.92093 
" clip-path="url(#pab1f404d2b)" style="fill: none; stroke: #d3d3d3; stroke-width: 0.5; stroke-linecap: square"/>
   </g>
   <g id="line2d_5">
    <path d="M 7.2 510.027907 
L 844.2 510.027907 
" clip-path="url(#pab1f404d2b)" style="fill: none; stroke: #d3d3d3; stroke-width: 0.5; stroke-linecap: square"/>
   </g>
   <g id="line2d_6">
    <path d="M 7.2 497.134884 
L 844.2 497.134884 
" clip-path="url(#pab1f404d2b)" style="fill: none; stroke: #d3d3d3; stroke-width: 0.5; stroke-linecap: square"/>
   </g>
   <g id="line2d_7">
    <path d="M 7.2 484.24186 
L 844.2 484.24186 
" clip-path="url(#pab1f404d2b)" style="fill: none; stroke: #d3d3d3; stroke-width: 0.5; stroke-linecap: square"/>
   </g>
   <g id="line2d_8">
    <path d="M 7.2 471.348837 
L 844.2 471.348837 
" clip-path="url(#pab1f404d2b)" style="fill: none; stroke: #d3d3d3; stroke-width: 0.5; stroke-linecap: square"/>
   </g>
   <g id="line2d_9">
    <path d="M 7.2 458.455814 
L 844.2 458.455814 
" clip-path="url(#pab1f404d2b)" style="fill: none; stroke: #d3d3d3; stroke-width: 0.5; stroke-linecap: square"/>
   </g>
   <g id="line2d_10">
    <path d="M 7.2 445.562791 
L 844.2 445.562791 
" clip-path="url(#pab1f404d2b)" style="fill: none; stroke: #d3d3d3; stroke-width: 0.5; stroke-linecap: square"/>
   </g>
   <g id="line2d_11">
    <path d="M 7.2 432.669767 
L 844.2 432.669767 
" clip-path="url(#pab1f404d2b)" style="fill: none; stroke: #d3d3d3; stroke-width: 0.5; stroke-linecap: square"/>
   </g>
   <g id="line2d_12">
    <path d="M 7.2 419.776744 
L 844.2 419.776744 
" clip-path="url(#pab1f404d2b)" style="fill: none; stroke: #d3d3d3; stroke-width: 0.5; stroke-linecap: square"/>
   </g>
   <g id="line2d_13">
    <path d="M 7.2 406.883721 
L 844.2 406.883721 
" clip-path="url(#pab1f404d2b)" style="fill: none; stroke: #d3d3d3; stroke-width: 0.5; stroke-linecap: square"/>
   </g>
   <g id="line2d_14">
    <path d="M 7.2 393.990698 
L 844.2 393.990698 
" clip-path="url(#pab1f404d2b)" style="fill: none; stroke: #d3d3d3; stroke-width: 0.5; stroke-linecap: square"/>
   </g>
   <g id="line2d_15">
    <path d="M 7.2 381.097674 
L 844.2 381.097674 
" clip-path="url(#pab1f404d2b)" style="fill: none; stroke: #d3d3d3; stroke-width: 0.5; stroke-linecap: square"/>
   </g>
   <g id="line2d_16">
    <path d="M 7.2 368.204651 
L 844.2 368.204651 
" clip-path="url(#pab1f404d2b)" style="fill: none; stroke: #d3d3d3; stroke-width: 0.5; stroke-linecap: square"/>
   </g>
   <g id="line2d_17">
    <path d="M 7.2 355.311628 
L 844.2 355.311628 
" clip-path="url(#pab1f404d2b)" style="fill: none; stroke: #d3d3d3; stroke-width: 0.5; stroke-linecap: square"/>
   </g>
   <g id="line2d_18">
    <path d="M 7.2 342.418605 
L 844.2 342.418605 
" clip-path="url(#pab1f404d2b)" style="fill: none; stroke: #d3d3d3; stroke-width: 0.5; stroke-linecap: square"/>
   </g>
   <g id="line2d_19">
    <path d="M 7.2 329.525581 
L 844.2 329.525581 
" clip-path="url(#pab1f404d2b)" style="fill: none; stroke: #d3d3d3; stroke-width: 0.5; stroke-linecap: square"/>
   </g>
   <g id="line2d_20">
    <path d="M 7.2 316.632558 
L 844.2 316.632558 
" clip-path="url(#pab1f404d2b)" style="fill: none; stroke: #d3d3d3; stroke-width: 0.5; stroke-linecap: square"/>
   </g>
   <g id="line2d_21">
    <path d="M 7.2 303.739535 
L 844.2 303.739535 
" clip-path="url(#pab1f404d2b)" style="fill: none; stroke: #d3d3d3; stroke-width: 0.5; stroke-linecap: square"/>
   </g>
   <g id="line2d_22">
    <path d="M 7.2 290.846512 
L 844.2 290.846512 
" clip-path="url(#pab1f404d2b)" style="fill: none; stroke: #d3d3d3; stroke-width: 0.5; stroke-linecap: square"/>
   </g>
   <g id="line2d_23">
    <path d="M 7.2 277.953488 
L 844.2 277.953488 
" clip-path="url(#pab1f404d2b)" style="fill: none; stroke: #d3d3d3; stroke-width: 0.5; stroke-linecap: square"/>
   </g>
   <g id="line2d_24">
    <path d="M 7.2 265.060465 
L 844.2 265.060465 
" clip-path="url(#pab1f404d2b)" style="fill: none; stroke: #d3d3d3; stroke-width: 0.5; stroke-linecap: square"/>
   </g>
   <g id="line2d_25">
    <path d="M 7.2 252.167442 
L 844.2 252.167442 
" clip-path="url(#pab1f404d2b)" style="fill: none; stroke: #d3d3d3; stroke-width: 0.5; stroke-linecap: square"/>
   </g>
   <g id="line2d_26">
    <path d="M 7.2 239.274419 
L 844.2 239.274419 
" clip-path="url(#pab1f404d2b)" style="fill: none; stroke: #d3d3d3; stroke-width: 0.5; stroke-linecap: square"/>
   </g>
   <g id="line2d_27">
    <path d="M 7.2 226.381395 
L 844.2 226.381395 
" clip-path="url(#pab1f404d2b)" style="fill: none; stroke: #d3d3d3; stroke-width: 0.5; stroke-linecap: square"/>
   </g>
   <g id="line2d_28">
    <path d="M 7.2 213.488372 
L 844.2 213.488372 
" clip-path="url(#pab1f404d2b)" style="fill: none; stroke: #d3d3d3; stroke-width: 0.5; stroke-linecap: square"/>
   </g>
   <g id="line2d_29">
    <path d="M 7.2 200.595349 
L 844.2 200.595349 
" clip-path="url(#pab1f404d2b)" style="fill: none; stroke: #d3d3d3; stroke-width: 0.5; stroke-linecap: square"/>
   </g>
   <g id="line2d_30">
    <path d="M 7.2 187.702326 
L 844.2 187.702326 
" clip-path="url(#pab1f404d2b)" style="fill: none; stroke: #d3d3d3; stroke-width: 0.5; stroke-linecap: square"/>
   </g>
   <g id="line2d_31">
    <path d="M 7.2 174.809302 
L 844.2 174.809302 
" clip-path="url(#pab1f404d2b)" style="fill: none; stroke: #d3d3d3; stroke-width: 0.5; stroke-linecap: square"/>
   </g>
   <g id="line2d_32">
    <path d="M 7.2 161.916279 
L 844.2 161.916279 
" clip-path="url(#pab1f404d2b)" style="fill: none; stroke: #d3d3d3; stroke-width: 0.5; stroke-linecap: square"/>
   </g>
   <g id="line2d_33">
    <path d="M 7.2 149.023256 
L 844.2 149.023256 
" clip-path="url(#pab1f404d2b)" style="fill: none; stroke: #d3d3d3; stroke-width: 0.5; stroke-linecap: square"/>
   </g>
   <g id="line2d_34">
    <path d="M 7.2 136.130233 
L 844.2 136.130233 
" clip-path="url(#pab1f404d2b)" style="fill: none; stroke: #d3d3d3; stroke-width: 0.5; stroke-linecap: square"/>
   </g>
   <g id="line2d_35">
    <path d="M 7.2 123.237209 
L 844.2 123.237209 
" clip-path="url(#pab1f404d2b)" style="fill: none; stroke: #d3d3d3; stroke-width: 0.5; stroke-linecap: square"/>
   </g>
   <g id="line2d_36">
    <path d="M 7.2 110.344186 
L 844.2 110.344186 
" clip-path="url(#pab1f404d2b)" style="fill: none; stroke: #d3d3d3; stroke-width: 0.5; stroke-linecap: square"/>
   </g>
   <g id="line2d_37">
    <path d="M 7.2 97.451163 
L 844.2 97.451163 
" clip-path="url(#pab1f404d2b)" style="fill: none; stroke: #d3d3d3; stroke-width: 0.5; stroke-linecap: square"/>
   </g>
   <g id="line2d_38">
    <path d="M 7.2 84.55814 
L 844.2 84.55814 
" clip-path="url(#pab1f404d2b)" style="fill: none; stroke: #d3d3d3; stroke-width: 0.5; stroke-linecap: square"/>
   </g>
   <g id="line2d_39">
    <path d="M 7.2 71.665116 
L 844.2 71.665116 
" clip-path="url(#pab1f404d2b)" style="fill: none; stroke: #d3d3d3; stroke-width: 0.5; stroke-linecap: square"/>
   </g>
   <g id="line2d_40">
    <path d="M 7.2 58.772093 
L 844.2 58.772093 
" clip-path="url(#pab1f404d2b)" style="fill: none; stroke: #d3d3d3; stroke-width: 0.5; stroke-linecap: square"/>
   </g>
   <g id="line2d_41">
    <path d="M 7.2 45.87907 
L 844.2 45.87907 
" clip-path="url(#pab1f404d2b)" style="fill: none; stroke: #d3d3d3; stroke-width: 0.5; stroke-linecap: square"/>
   </g>
   <g id="line2d_42">
    <path d="M 7.2 32.986047 
L 844.2 32.986047 
" clip-path="url(#pab1f404d2b)" style="fill: none; stroke: #d3d3d3; stroke-width: 0.5; stroke-linecap: square"/>
   </g>
   <g id="line2d_43">
    <path d="M 7.2 20.093023 
L 844.2 20.093023 
" clip-path="url(#pab1f404d2b)" style="fill: none; stroke: #d3d3d3; stroke-width: 0.5; stroke-linecap: square"/>
   </g>
   <g id="line2d_44">
    <path d="M 7.2 7.2 
L 844.2 7.2 
" clip-path="url(#pab1f404d2b)" style="fill: none; stroke: #d3d3d3; stroke-width: 0.5; stroke-linecap: square"/>
   </g>
   <g id="line2d_45">
    <path d="M 7.2 448.786047 
L 10.482353 436.675045 
L 13.764706 425.960613 
L 17.047059 418.003281 
L 20.329412 413.767739 
L 23.611765 413.69263 
L 26.894118 417.631423 
L 30.176471 424.872341 
L 33.458824 434.234675 
L 36.741176 444.228443 
L 40.023529 453.255865 
L 43.305882 459.827419 
L 46.588235 462.763308 
L 49.870588 461.353126 
L 53.152941 455.452165 
L 56.435294 445.501342 
L 59.717647 432.468072 
L 66.282353 402.821561 
L 69.564706 389.361073 
L 72.847059 378.698871 
L 76.129412 371.803339 
L 79.411765 369.116754 
L 82.694118 370.49615 
L 85.976471 375.233248 
L 89.258824 382.150757 
L 92.541176 389.762035 
L 95.823529 396.472557 
L 99.105882 400.795965 
L 102.388235 401.555532 
L 105.670588 398.043827 
L 108.952941 390.119009 
L 112.235294 378.224763 
L 115.517647 363.331154 
L 122.082353 330.223274 
L 125.364706 315.166484 
L 128.647059 303.000514 
L 131.929412 294.695804 
L 135.211765 290.696556 
L 138.494118 290.861596 
L 141.776471 294.484304 
L 145.058824 300.388911 
L 148.341176 307.090159 
L 151.623529 312.994766 
L 154.905882 316.617474 
L 158.188235 316.782514 
L 161.470588 312.783265 
L 164.752941 304.478556 
L 168.035294 292.312586 
L 171.317647 277.255796 
L 177.882353 244.147915 
L 181.164706 229.254307 
L 184.447059 217.360061 
L 187.729412 209.435243 
L 191.011765 205.923537 
L 194.294118 206.683105 
L 197.576471 211.006512 
L 200.858824 217.717035 
L 204.141176 225.328313 
L 207.423529 232.245822 
L 210.705882 236.98292 
L 213.988235 238.362315 
L 217.270588 235.67573 
L 220.552941 228.780198 
L 223.835294 218.117996 
L 227.117647 204.657509 
L 233.682353 175.010998 
L 236.964706 161.977727 
L 240.247059 152.026905 
L 243.529412 146.125944 
L 246.811765 144.715762 
L 250.094118 147.651651 
L 253.376471 154.223205 
L 256.658824 163.250627 
L 259.941176 173.244395 
L 263.223529 182.606728 
L 266.505882 189.847647 
L 269.788235 193.786439 
L 273.070588 193.711331 
L 276.352941 189.475789 
L 279.635294 181.518457 
L 282.917647 170.804024 
L 289.482353 146.758125 
L 292.764706 136.571762 
L 296.047059 129.493744 
L 299.329412 126.487559 
L 302.611765 127.990172 
L 305.894118 133.852895 
L 309.176471 143.361326 
L 312.458824 155.331656 
L 315.741176 168.270343 
L 319.023529 180.575584 
L 322.305882 190.75338 
L 325.588235 197.619007 
L 328.870588 200.456693 
L 332.152941 199.115927 
L 335.435294 194.031398 
L 338.717647 186.163874 
L 345.282353 167.718587 
L 348.564706 160.278279 
L 351.847059 155.90513 
L 355.129412 155.558935 
L 358.411765 159.673025 
L 361.694118 168.095144 
L 364.976471 180.107396 
L 368.258824 194.522551 
L 371.541176 209.843727 
L 374.823529 224.465869 
L 378.105882 236.89181 
L 381.388235 245.933758 
L 384.670588 250.872969 
L 387.952941 251.556059 
L 391.235294 248.414955 
L 394.517647 242.407768 
L 401.082353 227.42385 
L 404.364706 221.579845 
L 407.647059 218.710464 
L 410.929412 219.773447 
L 414.211765 225.2002 
L 417.494118 234.836675 
L 420.776471 247.963317 
L 424.058824 263.391373 
L 427.341176 279.62258 
L 430.623529 295.050637 
L 433.905882 308.177278 
L 437.188235 317.813754 
L 440.470588 323.240507 
L 443.752941 324.303489 
L 447.035294 321.434108 
L 450.317647 315.590103 
L 456.882353 300.606185 
L 460.164706 294.598998 
L 463.447059 291.457894 
L 466.729412 292.140985 
L 470.011765 297.080195 
L 473.294118 306.122143 
L 476.576471 318.548085 
L 479.858824 333.170226 
L 483.141176 348.491403 
L 486.423529 362.906558 
L 489.705882 374.918809 
L 492.988235 383.340929 
L 496.270588 387.455018 
L 499.552941 387.108823 
L 502.835294 382.735675 
L 506.117647 375.295367 
L 512.682353 356.85008 
L 515.964706 348.982555 
L 519.247059 343.898027 
L 522.529412 342.557261 
L 525.811765 345.394947 
L 529.094118 352.260574 
L 532.376471 362.438369 
L 535.658824 374.743611 
L 538.941176 387.682297 
L 542.223529 399.652628 
L 545.505882 409.161059 
L 548.788235 415.023782 
L 552.070588 416.526395 
L 555.352941 413.52021 
L 558.635294 406.442191 
L 561.917647 396.255828 
L 568.482353 372.209929 
L 571.764706 361.495497 
L 575.047059 353.538165 
L 578.329412 349.302623 
L 581.611765 349.227514 
L 584.894118 353.166306 
L 588.176471 360.407225 
L 591.458824 369.769558 
L 594.741176 379.763326 
L 598.023529 388.790749 
L 601.305882 395.362303 
L 604.588235 398.298191 
L 607.870588 396.88801 
L 611.152941 390.987049 
L 614.435294 381.036226 
L 617.717647 368.002956 
L 624.282353 338.356444 
L 627.564706 324.895957 
L 630.847059 314.233755 
L 634.129412 307.338223 
L 637.411765 304.651638 
L 640.694118 306.031034 
L 643.976471 310.768132 
L 647.258824 317.68564 
L 650.541176 325.296919 
L 653.823529 332.007441 
L 657.105882 336.330849 
L 660.388235 337.090416 
L 663.670588 333.57871 
L 666.952941 325.653893 
L 670.235294 313.759646 
L 673.517647 298.866038 
L 680.082353 265.758158 
L 683.364706 250.701367 
L 686.647059 238.535398 
L 689.929412 230.230688 
L 693.211765 226.23144 
L 696.494118 226.396479 
L 699.776471 230.019188 
L 703.058824 235.923794 
L 706.341176 242.625043 
L 709.623529 248.52965 
L 712.905882 252.152358 
L 716.188235 252.317398 
L 719.470588 248.318149 
L 722.752941 240.013439 
L 726.035294 227.84747 
L 729.317647 212.790679 
L 735.882353 179.682799 
L 739.164706 164.789191 
L 742.447059 152.894944 
L 745.729412 144.970127 
L 749.011765 141.458421 
L 752.294118 142.217988 
L 755.576471 146.541396 
L 758.858824 153.251918 
L 762.141176 160.863197 
L 765.423529 167.780705 
L 768.705882 172.517803 
L 771.988235 173.897199 
L 775.270588 171.210614 
L 778.552941 164.315082 
L 781.835294 153.65288 
L 785.117647 140.192393 
L 791.682353 110.545881 
L 794.964706 97.512611 
L 798.247059 87.561789 
L 801.529412 81.660828 
L 804.811765 80.250646 
L 808.094118 83.186534 
L 811.376471 89.758089 
L 814.658824 98.785511 
L 817.941176 108.779279 
L 821.223529 118.141612 
L 824.505882 125.382531 
L 827.788235 129.321323 
L 831.070588 129.246214 
L 834.352941 125.010672 
L 837.635294 117.05334 
L 840.917647 106.338908 
L 844.2 94.227907 
L 844.2 94.227907 
" clip-path="url(#pab1f404d2b)" style="fill: none; stroke: #808080; stroke-width: 0.5; stroke-linecap: square"/>
   </g>
   <g id="matplotlib.axis_1"/>
   <g id="matplotlib.axis_2"/>
   <g id="patch_3">
    <path d="M 7.2 561.6 
L 7.2 7.2 
" style="fill: none; stroke: #000000; stroke-width: 0.8; stroke-linejoin: miter; stroke-linecap: square"/>
   </g>
   <g id="patch_4">
    <path d="M 844.2 561.6 
L 844.2 7.2 
" style="fill: none; stroke: #000000; stroke-width: 0.8; stroke-linejoin: miter; stroke-linecap: square"/>
   </g>
   <g id="patch_5">
    <path d="M 7.2 561.6 
L 844.2 561.6 
" style="fill: none; stroke: #000000; stroke-width: 0.8; stroke-linejoin: miter; stroke-linecap: square"/>
   </g>
   <g id="patch_6">
    <path d="M 7.2 7.2 
L 844.2 7.2 
" style="fill: none; stroke: #000000; stroke-width: 0.8; stroke-linejoin: miter; stroke-linecap: square"/>
   </g>
   <g id="legend_1">
    <g id="patch_7">
     <path d="M 782.894729 556.6 
L 837.2 556.6 
Q 839.2 556.6 839.2 554.6 
L 839.2 513.788465 
Q 839.2 511.788465 837.2 511.788465 
L 782.894729 511.788465 
Q 780.894729 511.788465 780.894729 513.788465 
L 780.894729 554.6 
Q 780.894729 556.6 782.894729 556.6 
z
" style="fill: #ffffff; opacity: 0.8; stroke: #cccccc; stroke-linejoin: miter"/>
    </g>
    <g id="line2d_46">
     <path d="M 784.894729 519.288465 
L 794.894729 519.288465 
L 794.894729 519.288465 
L 804.894729 519.288465 
L 804.894729 519.288465 
" style="fill: none; stroke: #0000ff; stroke-width: 1.5; stroke-linecap: square"/>
    </g>
    <g id="text_1">
     <!-- Ask -->
     <g transform="translate(812.894729 522.788465) scale(0.1 -0.1)">
      <defs>
       <path id="CMR17-41" d="M 2323 4378 
C 2291 4461 2278 4480 2214 4480 
C 2150 4480 2138 4461 2106 4378 
L 749 566 
C 627 223 371 153 147 153 
L 147 -13 
C 262 0 518 0 640 0 
C 800 0 1056 0 1210 -13 
L 1210 153 
C 909 153 864 361 864 439 
C 864 497 877 530 890 569 
L 1229 1536 
L 2906 1536 
L 3290 442 
C 3322 365 3322 352 3322 327 
C 3322 153 3046 153 2925 153 
L 2925 0 
C 3110 0 3443 0 3642 0 
C 3808 0 4128 0 4282 -13 
L 4282 153 
C 3942 153 3827 153 3744 387 
L 2323 4378 
z
M 2067 3893 
L 2848 1702 
L 1286 1702 
L 2067 3893 
z
" transform="scale(0.015625)"/>
       <path id="CMR17-73" d="M 1978 2697 
C 1978 2813 1971 2819 1933 2819 
C 1907 2819 1901 2813 1824 2717 
C 1805 2691 1747 2626 1728 2601 
C 1523 2819 1235 2819 1126 2819 
C 416 2819 160 2447 160 2076 
C 160 1498 813 1365 998 1325 
C 1402 1243 1542 1217 1677 1101 
C 1760 1025 1901 884 1901 654 
C 1901 384 1747 38 1158 38 
C 602 38 403 460 288 1021 
C 269 1110 269 1117 218 1117 
C 166 1117 160 1110 160 983 
L 160 63 
C 160 -51 166 -58 205 -58 
C 237 -58 243 -51 275 0 
C 314 57 410 211 448 276 
C 576 103 800 -64 1158 -64 
C 1792 -64 2131 283 2131 784 
C 2131 1112 1958 1285 1875 1362 
C 1683 1561 1459 1606 1190 1657 
C 838 1735 390 1825 390 2217 
C 390 2383 480 2737 1126 2737 
C 1811 2737 1850 2094 1862 1888 
C 1869 1856 1901 1849 1920 1849 
C 1978 1849 1978 1869 1978 1978 
L 1978 2697 
z
" transform="scale(0.015625)"/>
       <path id="CMR17-6b" d="M 1670 1673 
C 1664 1686 1632 1724 1632 1743 
C 1632 1756 2086 2171 2144 2222 
C 2509 2528 2739 2560 2906 2560 
L 2906 2733 
C 2867 2733 2854 2733 2848 2720 
L 2534 2720 
C 2355 2720 2080 2720 1907 2733 
L 1907 2566 
C 1997 2559 2061 2508 2061 2419 
C 2061 2291 1933 2170 1926 2170 
L 960 1289 
L 960 4396 
L 198 4326 
L 198 4160 
C 576 4160 634 4122 634 3817 
L 634 426 
C 634 184 608 153 198 153 
L 198 -13 
C 352 0 634 0 794 0 
C 954 0 1235 0 1389 -13 
L 1389 153 
C 979 153 954 178 954 428 
L 954 1130 
L 1395 1532 
L 2042 574 
C 2118 459 2182 369 2182 286 
C 2182 172 2067 153 1990 153 
L 1990 -13 
C 2144 0 2419 0 2579 0 
C 2694 0 2931 0 3040 0 
L 3040 153 
C 2739 153 2669 210 2477 491 
L 1670 1673 
z
" transform="scale(0.015625)"/>
      </defs>
      <use xlink:href="#CMR17-41" transform="scale(0.996264)"/>
      <use xlink:href="#CMR17-73" transform="translate(69.07243 0) scale(0.996264)"/>
      <use xlink:href="#CMR17-6b" transform="translate(104.873767 0) scale(0.996264)"/>
     </g>
    </g>
    <g id="line2d_47">
     <path d="M 784.894729 533.225643 
L 794.894729 533.225643 
L 794.894729 533.225643 
L 804.894729 533.225643 
L 804.894729 533.225643 
" style="fill: none; stroke: #ff0000; stroke-width: 1.5; stroke-linecap: square"/>
    </g>
    <g id="text_2">
     <!-- Bid -->
     <g transform="translate(812.894729 536.725643) scale(0.1 -0.1)">
      <defs>
       <path id="CMR17-42" d="M 333 4352 
L 333 4186 
C 774 4186 845 4186 845 3900 
L 845 452 
C 845 166 774 166 333 166 
L 333 0 
L 2534 0 
C 3354 0 3885 583 3885 1164 
C 3885 1741 3360 2233 2675 2233 
C 3290 2356 3718 2771 3718 3264 
C 3718 3802 3194 4352 2368 4352 
L 333 4352 
z
M 1248 2304 
L 1248 3937 
C 1248 4155 1261 4186 1517 4186 
L 2336 4186 
C 2970 4186 3251 3674 3251 3277 
C 3251 2791 2861 2304 2170 2304 
L 1248 2304 
z
M 1517 166 
C 1261 166 1248 197 1248 413 
L 1248 2202 
L 2432 2202 
C 3091 2202 3411 1625 3411 1162 
C 3411 699 3046 166 2349 166 
L 1517 166 
z
" transform="scale(0.015625)"/>
       <path id="CMR17-69" d="M 992 3909 
C 992 4049 877 4170 730 4170 
C 589 4170 467 4056 467 3909 
C 467 3769 582 3648 730 3648 
C 870 3648 992 3763 992 3909 
z
M 243 2706 
L 243 2541 
C 602 2541 653 2502 653 2197 
L 653 427 
C 653 184 627 153 218 153 
L 218 -13 
C 371 0 646 0 806 0 
C 960 0 1222 0 1370 -13 
L 1370 153 
C 992 153 979 191 979 420 
L 979 2776 
L 243 2706 
z
" transform="scale(0.015625)"/>
       <path id="CMR17-64" d="M 1869 4326 
L 1869 4160 
C 2246 4160 2304 4122 2304 3820 
L 2304 2345 
C 2278 2377 2016 2790 1498 2790 
C 845 2790 211 2208 211 1364 
C 211 525 806 -64 1434 -64 
C 1978 -64 2259 337 2291 380 
L 2291 -63 
L 3066 -63 
L 3066 128 
C 2688 128 2630 166 2630 473 
L 2630 4396 
L 1869 4326 
z
M 2291 755 
C 2291 563 2176 390 2029 262 
C 1811 70 1594 38 1472 38 
C 1286 38 621 134 621 1356 
C 621 2612 1363 2688 1530 2688 
C 1824 2688 2061 2522 2208 2291 
C 2291 2157 2291 2138 2291 2023 
L 2291 755 
z
" transform="scale(0.015625)"/>
      </defs>
      <use xlink:href="#CMR17-42" transform="scale(0.996264)"/>
      <use xlink:href="#CMR17-69" transform="translate(65.188754 0) scale(0.996264)"/>
      <use xlink:href="#CMR17-64" transform="translate(90.059813 0) scale(0.996264)"/>
     </g>
    </g>
    <g id="line2d_48">
     <path d="M 784.894729 547.162822 
L 794.894729 547.162822 
L 804.894729 547.162822 
" style="fill: none; stroke: #808080; stroke-width: 0.5; stroke-linecap: square"/>
    </g>
    <g id="text_3">
     <!-- Price -->
     <g transform="translate(812.894729 550.662822) scale(0.1 -0.1)">
      <defs>
       <path id="CMR17-50" d="M 1267 2042 
L 2291 2042 
C 3117 2042 3718 2578 3718 3184 
C 3718 3791 3130 4352 2291 4352 
L 333 4352 
L 333 4186 
C 774 4186 845 4186 845 3899 
L 845 446 
C 845 160 774 160 333 160 
L 333 0 
C 518 0 858 0 1056 0 
C 1254 0 1594 0 1779 0 
L 1779 160 
C 1338 160 1267 160 1267 446 
L 1267 2042 
z
M 1254 2176 
L 1254 3938 
C 1254 4155 1267 4186 1523 4186 
L 2170 4186 
C 2995 4186 3232 3714 3232 3184 
C 3232 2604 2950 2176 2170 2176 
L 1254 2176 
z
" transform="scale(0.015625)"/>
       <path id="CMR17-72" d="M 960 1497 
C 960 2112 1222 2688 1702 2688 
C 1747 2688 1792 2682 1837 2662 
C 1837 2662 1696 2617 1696 2452 
C 1696 2298 1818 2234 1914 2234 
C 1990 2234 2131 2279 2131 2458 
C 2131 2663 1926 2790 1709 2790 
C 1222 2790 1011 2317 947 2093 
L 941 2093 
L 941 2790 
L 198 2720 
L 198 2554 
C 576 2554 634 2515 634 2208 
L 634 428 
C 634 184 608 153 198 153 
L 198 -13 
C 352 0 646 0 813 0 
C 998 0 1325 0 1498 -13 
L 1498 153 
C 1037 153 960 153 960 440 
L 960 1497 
z
" transform="scale(0.015625)"/>
       <path id="CMR17-63" d="M 2234 2240 
C 2112 2240 1933 2240 1933 2017 
C 1933 1838 2080 1787 2163 1787 
C 2208 1787 2394 1807 2394 2024 
C 2394 2467 1958 2803 1466 2803 
C 787 2803 211 2178 211 1363 
C 211 516 813 -64 1466 -64 
C 2259 -64 2458 677 2458 748 
C 2458 774 2451 793 2406 793 
C 2362 793 2355 787 2330 703 
C 2163 180 1798 51 1523 51 
C 1114 51 621 427 621 1369 
C 621 2338 1094 2688 1472 2688 
C 1722 2688 2093 2573 2234 2240 
z
" transform="scale(0.015625)"/>
       <path id="CMR17-65" d="M 2438 1472 
C 2464 1498 2464 1511 2464 1576 
C 2464 2238 2118 2816 1389 2816 
C 710 2816 173 2169 173 1383 
C 173 551 781 -64 1459 -64 
C 2176 -64 2458 607 2458 740 
C 2458 784 2419 784 2406 784 
C 2362 784 2355 771 2330 696 
C 2189 265 1837 51 1504 51 
C 1229 51 954 203 781 480 
C 582 803 582 1176 582 1472 
L 2438 1472 
z
M 589 1568 
C 634 2505 1126 2714 1382 2714 
C 1818 2714 2112 2297 2118 1568 
L 589 1568 
z
" transform="scale(0.015625)"/>
      </defs>
      <use xlink:href="#CMR17-50" transform="scale(0.996264)"/>
      <use xlink:href="#CMR17-72" transform="translate(62.586301 0) scale(0.996264)"/>
      <use xlink:href="#CMR17-69" transform="translate(97.867068 0) scale(0.996264)"/>
      <use xlink:href="#CMR17-63" transform="translate(122.738127 0) scale(0.996264)"/>
      <use xlink:href="#CMR17-65" transform="translate(163.223787 0) scale(0.996264)"/>
     </g>
    </g>
   </g>
   <g id="line2d_49">
    <path d="M 7.295732 471.348837 
L 17.709355 471.348837 
L 17.709355 458.455814 
L 39.888854 458.455814 
L 39.888854 471.348837 
L 44.489922 471.348837 
L 44.489922 484.24186 
L 49.011045 484.24186 
L 49.011045 497.134884 
L 57.351106 497.134884 
L 57.351106 471.348837 
L 62.409433 471.348837 
L 62.409433 445.562791 
L 62.442145 445.562791 
L 65.808534 445.562791 
L 65.808534 419.776744 
L 67.442472 419.776744 
L 67.442472 406.883721 
L 78.382005 406.883721 
L 78.382005 393.990698 
L 84.487404 393.990698 
L 84.487404 406.883721 
L 89.5163 406.883721 
L 89.5163 419.776744 
L 116.033915 419.776744 
L 116.033915 406.883721 
L 120.261255 406.883721 
L 120.261255 393.990698 
L 121.413024 393.990698 
L 121.413024 381.097674 
L 123.774303 381.097674 
L 123.774303 368.204651 
L 130.011817 368.204651 
L 130.011817 329.525581 
L 130.034681 329.525581 
L 161.216539 329.525581 
L 161.216539 355.311628 
L 163.099797 355.311628 
L 163.099797 342.418605 
L 169.104495 342.418605 
L 169.104495 316.632558 
L 173.010946 316.632558 
L 173.010946 303.739535 
L 177.356437 303.739535 
L 177.356437 290.846512 
L 183.115646 290.846512 
L 183.115646 277.953488 
L 184.332733 277.953488 
L 184.332733 265.060465 
L 196.118716 265.060465 
L 196.118716 239.274419 
L 202.199467 239.274419 
L 202.199467 252.167442 
L 205.591582 252.167442 
L 205.591582 265.060465 
L 213.278664 265.060465 
L 213.278664 277.953488 
L 218.396648 277.953488 
L 218.396648 265.060465 
L 225.083738 265.060465 
L 225.083738 239.274419 
L 227.579397 239.274419 
L 227.579397 213.488372 
L 233.129645 213.488372 
L 233.129645 187.702326 
L 240.876739 187.702326 
L 240.876739 174.809302 
L 252.955042 174.809302 
L 252.955042 187.702326 
L 269.536037 187.702326 
L 269.536037 213.488372 
L 271.0599 213.488372 
L 271.0599 226.381395 
L 285.137212 226.381395 
L 285.137212 200.595349 
L 295.744578 200.595349 
L 295.744578 161.916279 
L 306.234789 161.916279 
L 306.234789 187.702326 
L 316.960474 187.702326 
L 316.960474 226.381395 
L 331.839359 226.381395 
L 331.839359 239.274419 
L 348.810504 239.274419 
L 348.810504 213.488372 
L 353.764862 213.488372 
L 353.764862 187.702326 
L 353.868049 187.702326 
L 359.667082 187.702326 
L 359.667082 200.595349 
L 365.512326 200.595349 
L 365.512326 226.381395 
L 370.187104 226.381395 
L 370.187104 252.167442 
L 382.086881 252.167442 
L 382.086881 290.846512 
L 383.776456 290.846512 
L 383.776456 277.953488 
L 392.119782 277.953488 
L 392.119782 265.060465 
L 413.974188 265.060465 
L 413.974188 252.167442 
L 420.485251 252.167442 
L 420.485251 265.060465 
L 430.439233 265.060465 
L 430.439233 316.632558 
L 438.162187 316.632558 
L 438.162187 355.311628 
L 448.347632 355.311628 
L 448.347632 342.418605 
L 453.459344 342.418605 
L 453.459344 329.525581 
L 455.745292 329.525581 
L 455.745292 316.632558 
L 464.492285 316.632558 
L 464.492285 329.525581 
L 469.911996 329.525581 
L 469.911996 342.418605 
L 472.773076 342.418605 
L 472.773076 355.311628 
L 482.700087 355.311628 
L 482.700087 381.097674 
L 487.36973 381.097674 
L 487.36973 393.990698 
L 490.866489 393.990698 
L 490.866489 406.883721 
L 492.446749 406.883721 
L 492.446749 419.776744 
L 497.48051 419.776744 
L 497.48051 432.669767 
L 500.448734 432.669767 
L 500.448734 445.562791 
L 503.943939 445.562791 
L 503.943939 432.669767 
L 508.655327 432.669767 
L 508.655327 419.776744 
L 513.007874 419.776744 
L 513.007874 393.990698 
L 519.470095 393.990698 
L 519.470095 381.097674 
L 526.102936 381.097674 
L 526.102936 393.990698 
L 528.952417 393.990698 
L 528.952417 406.883721 
L 534.273553 406.883721 
L 534.273553 432.669767 
L 542.428757 432.669767 
L 542.428757 445.562791 
L 562.500534 445.562791 
L 562.500534 432.669767 
L 567.347932 432.669767 
L 567.347932 419.776744 
L 575.385341 419.776744 
L 575.385341 381.097674 
L 580.728722 381.097674 
L 580.728722 368.204651 
L 586.301144 368.204651 
L 586.301144 381.097674 
L 590.436801 381.097674 
L 590.436801 393.990698 
L 592.897747 393.990698 
L 592.897747 406.883721 
L 602.746223 406.883721 
L 602.746223 432.669767 
L 610.111601 432.669767 
L 610.111601 406.883721 
L 614.860314 406.883721 
L 614.860314 393.990698 
L 622.450211 393.990698 
L 622.450211 368.204651 
L 629.78224 368.204651 
L 629.78224 355.311628 
L 632.540815 355.311628 
L 632.540815 342.418605 
L 638.19437 342.418605 
L 638.19437 329.525581 
L 653.513011 329.525581 
L 653.513011 355.311628 
L 666.696769 355.311628 
L 666.696769 368.204651 
L 675.631206 368.204651 
L 675.631206 316.632558 
L 677.329547 316.632558 
L 677.329547 303.739535 
L 677.423204 303.739535 
L 680.77957 303.739535 
L 680.77957 290.846512 
L 684.743709 290.846512 
L 684.743709 277.953488 
L 715.995707 277.953488 
L 715.995707 290.846512 
L 727.043393 290.846512 
L 727.043393 277.953488 
L 729.984532 277.953488 
L 729.984532 265.060465 
L 740.73772 265.060465 
L 740.73772 187.702326 
L 746.527198 187.702326 
L 746.527198 174.809302 
L 754.547849 174.809302 
L 754.547849 187.702326 
L 757.056765 187.702326 
L 757.056765 200.595349 
L 773.562515 200.595349 
L 773.562515 187.702326 
L 779.771536 187.702326 
L 779.771536 174.809302 
L 787.260622 174.809302 
L 787.260622 161.916279 
L 794.069963 161.916279 
L 794.069963 136.130233 
L 797.825811 136.130233 
L 797.825811 123.237209 
L 800.651067 123.237209 
L 800.651067 110.344186 
L 801.52666 110.344186 
L 801.52666 97.451163 
L 813.450736 97.451163 
L 813.450736 110.344186 
L 814.771119 110.344186 
L 814.771119 123.237209 
L 816.810288 123.237209 
L 816.810288 136.130233 
L 819.106731 136.130233 
L 819.106731 149.023256 
L 822.256822 149.023256 
L 822.256822 161.916279 
L 834.671721 161.916279 
L 834.671721 149.023256 
L 841.959226 149.023256 
L 841.959226 123.237209 
L 841.959226 123.237209 
" clip-path="url(#pab1f404d2b)" style="fill: none; stroke: #ff0000; stroke-width: 1.5; stroke-linecap: square"/>
   </g>
   <g id="line2d_50">
    <path d="M 9.72603 406.883721 
L 15.02476 406.883721 
L 15.02476 381.097674 
L 22.544422 381.097674 
L 22.544422 368.204651 
L 25.890568 368.204651 
L 25.890568 381.097674 
L 29.144941 381.097674 
L 29.144941 393.990698 
L 32.64454 393.990698 
L 32.64454 406.883721 
L 34.254407 406.883721 
L 34.254407 419.776744 
L 36.136111 419.776744 
L 36.136111 432.669767 
L 54.84994 432.669767 
L 54.84994 419.776744 
L 63.048823 419.776744 
L 63.048823 393.990698 
L 72.809835 393.990698 
L 72.809835 368.204651 
L 73.847027 368.204651 
L 73.847027 355.311628 
L 80.422609 355.311628 
L 80.422609 342.418605 
L 92.546596 342.418605 
L 92.546596 355.311628 
L 98.448705 355.311628 
L 98.448705 381.097674 
L 107.185551 381.097674 
L 107.185551 368.204651 
L 112.361836 368.204651 
L 112.361836 329.525581 
L 120.553155 329.525581 
L 120.553155 290.846512 
L 126.895878 290.846512 
L 126.895878 265.060465 
L 134.986166 265.060465 
L 134.986166 252.167442 
L 159.209957 252.167442 
L 159.209957 277.953488 
L 164.24771 277.953488 
L 164.24771 265.060465 
L 168.709807 265.060465 
L 168.709807 252.167442 
L 173.402997 252.167442 
L 173.402997 226.381395 
L 177.869511 226.381395 
L 177.869511 200.595349 
L 181.458745 200.595349 
L 181.458745 174.809302 
L 184.610658 174.809302 
L 184.610658 161.916279 
L 192.539199 161.916279 
L 192.539199 174.809302 
L 195.558445 174.809302 
L 195.558445 187.702326 
L 202.778559 187.702326 
L 202.778559 200.595349 
L 224.567555 200.595349 
L 224.567555 187.702326 
L 230.376594 187.702326 
L 230.376594 174.809302 
L 233.364315 174.809302 
L 233.364315 161.916279 
L 246.227348 161.916279 
L 246.227348 110.344186 
L 256.066366 110.344186 
L 256.066366 136.130233 
L 258.50786 136.130233 
L 258.50786 149.023256 
L 267.16153 149.023256 
L 267.16153 174.809302 
L 270.333228 174.809302 
L 270.333228 161.916279 
L 270.408888 161.916279 
L 277.283994 161.916279 
L 277.283994 149.023256 
L 278.691379 149.023256 
L 278.691379 136.130233 
L 293.834098 136.130233 
L 293.834098 110.344186 
L 296.109007 110.344186 
L 296.109007 97.451163 
L 296.213975 97.451163 
L 304.925228 97.451163 
L 304.925228 84.55814 
L 313.996572 84.55814 
L 313.996572 110.344186 
L 314.007911 110.344186 
L 317.972878 110.344186 
L 317.972878 136.130233 
L 323.522538 136.130233 
L 323.522538 161.916279 
L 337.689852 161.916279 
L 337.689852 136.130233 
L 342.731314 136.130233 
L 342.731314 123.237209 
L 343.238411 123.237209 
L 343.238411 110.344186 
L 355.265377 110.344186 
L 355.265377 123.237209 
L 364.159398 123.237209 
L 364.159398 136.130233 
L 365.95396 136.130233 
L 365.95396 149.023256 
L 370.116778 149.023256 
L 370.116778 161.916279 
L 377.073883 161.916279 
L 377.073883 187.702326 
L 380.624396 187.702326 
L 380.624396 200.595349 
L 383.922607 200.595349 
L 383.922607 213.488372 
L 385.86284 213.488372 
L 385.86284 226.381395 
L 396.40624 226.381395 
L 396.40624 213.488372 
L 397.978579 213.488372 
L 397.978579 200.595349 
L 403.941287 200.595349 
L 403.941287 187.702326 
L 406.567006 187.702326 
L 406.567006 174.809302 
L 425.351951 174.809302 
L 425.351951 252.167442 
L 432.828093 252.167442 
L 432.828093 277.953488 
L 438.972323 277.953488 
L 438.972323 290.846512 
L 457.874776 290.846512 
L 457.874776 277.953488 
L 460.4852 277.953488 
L 460.4852 265.060465 
L 464.261263 265.060465 
L 464.261263 252.167442 
L 474.678353 252.167442 
L 474.678353 265.060465 
L 483.334138 265.060465 
L 483.334138 316.632558 
L 486.372889 316.632558 
L 486.372889 329.525581 
L 487.821377 329.525581 
L 487.821377 342.418605 
L 503.132434 342.418605 
L 503.132434 329.525581 
L 515.337814 329.525581 
L 515.337814 316.632558 
L 517.97156 316.632558 
L 517.97156 303.739535 
L 536.437877 303.739535 
L 536.437877 316.632558 
L 537.679519 316.632558 
L 537.679519 329.525581 
L 540.037883 329.525581 
L 540.037883 342.418605 
L 552.341726 342.418605 
L 552.341726 381.097674 
L 561.896483 381.097674 
L 561.896483 355.311628 
L 568.650218 355.311628 
L 568.650218 329.525581 
L 574.519346 329.525581 
L 574.519346 316.632558 
L 583.401892 316.632558 
L 583.401892 329.525581 
L 586.97125 329.525581 
L 586.97125 342.418605 
L 600.957129 342.418605 
L 600.957129 355.311628 
L 607.227441 355.311628 
L 607.227441 368.204651 
L 617.026204 368.204651 
L 617.026204 355.311628 
L 619.656839 355.311628 
L 619.656839 342.418605 
L 619.716942 342.418605 
L 620.840294 342.418605 
L 620.840294 329.525581 
L 631.29833 329.525581 
L 631.29833 277.953488 
L 634.831406 277.953488 
L 634.831406 265.060465 
L 636.228783 265.060465 
L 636.228783 277.953488 
L 648.518926 277.953488 
L 648.518926 303.739535 
L 662.36126 303.739535 
L 662.36126 290.846512 
L 673.42433 290.846512 
L 673.42433 265.060465 
L 675.631753 265.060465 
L 675.631753 252.167442 
L 678.608827 252.167442 
L 678.608827 239.274419 
L 686.72573 239.274419 
L 686.72573 200.595349 
L 687.355062 200.595349 
L 687.355062 187.702326 
L 690.486215 187.702326 
L 690.486215 174.809302 
L 720.049359 174.809302 
L 720.049359 200.595349 
L 722.094626 200.595349 
L 722.094626 187.702326 
L 725.608681 187.702326 
L 725.608681 174.809302 
L 728.983814 174.809302 
L 728.983814 161.916279 
L 730.769283 161.916279 
L 730.769283 149.023256 
L 737.836029 149.023256 
L 737.836029 136.130233 
L 739.542897 136.130233 
L 739.542897 123.237209 
L 752.982865 123.237209 
L 752.982865 97.451163 
L 761.595161 97.451163 
L 761.595161 110.344186 
L 763.715717 110.344186 
L 763.715717 123.237209 
L 768.278412 123.237209 
L 768.278412 136.130233 
L 769.51686 136.130233 
L 769.51686 149.023256 
L 787.167755 149.023256 
L 787.167755 97.451163 
L 791.358835 97.451163 
L 791.358835 71.665116 
L 800.298464 71.665116 
L 800.298464 58.772093 
L 810.246527 58.772093 
L 810.246527 71.665116 
L 822.272339 71.665116 
L 822.272339 84.55814 
L 829.483405 84.55814 
L 829.483405 97.451163 
L 839.105202 97.451163 
L 839.105202 97.451163 
" clip-path="url(#pab1f404d2b)" style="fill: none; stroke: #0000ff; stroke-width: 1.5; stroke-linecap: square"/>
   </g>
   <g id="line2d_51">
    <path d="M 146.7 561.6 
L 146.7 7.2 
" clip-path="url(#pab1f404d2b)" style="fill: none; stroke: #000000; stroke-width: 2; stroke-linecap: square"/>
   </g>
   <g id="line2d_52">
    <path d="M 704.7 561.6 
L 704.7 7.2 
" clip-path="url(#pab1f404d2b)" style="fill: none; stroke: #000000; stroke-width: 2; stroke-linecap: square"/>
   </g>
   <g id="line2d_53">
    <path d="M 202.5 561.6 
L 202.5 7.2 
" clip-path="url(#pab1f404d2b)" style="fill: none; stroke: #a9a9a9; stroke-linecap: square"/>
   </g>
   <g id="line2d_54">
    <path d="M 760.5 561.6 
L 760.5 7.2 
" clip-path="url(#pab1f404d2b)" style="fill: none; stroke: #a9a9a9; stroke-linecap: square"/>
   </g>
   <g id="PathCollection_1">
    <defs>
     <path id="m6f19ac8889" d="M 0 2.236068 
C 0.593012 2.236068 1.161816 2.000462 1.581139 1.581139 
C 2.000462 1.161816 2.236068 0.593012 2.236068 0 
C 2.236068 -0.593012 2.000462 -1.161816 1.581139 -1.581139 
C 1.161816 -2.000462 0.593012 -2.236068 0 -2.236068 
C -0.593012 -2.236068 -1.161816 -2.000462 -1.581139 -1.581139 
C -2.000462 -1.161816 -2.236068 -0.593012 -2.236068 0 
C -2.236068 0.593012 -2.000462 1.161816 -1.581139 1.581139 
C -1.161816 2.000462 -0.593012 2.236068 0 2.236068 
z
" style="stroke: #000000"/>
    </defs>
    <g clip-path="url(#pab1f404d2b)">
     <use xlink:href="#m6f19ac8889" x="130.034681" y="329.525581" style="stroke: #000000"/>
    </g>
   </g>
   <g id="PathCollection_2">
    <g clip-path="url(#pab1f404d2b)">
     <use xlink:href="#m6f19ac8889" x="134.986166" y="252.167442" style="stroke: #000000"/>
    </g>
   </g>
   <g id="PathCollection_3">
    <g clip-path="url(#pab1f404d2b)">
     <use xlink:href="#m6f19ac8889" x="161.216539" y="355.311628" style="stroke: #000000"/>
    </g>
   </g>
   <g id="PathCollection_4">
    <g clip-path="url(#pab1f404d2b)">
     <use xlink:href="#m6f19ac8889" x="684.743709" y="277.953488" style="stroke: #000000"/>
    </g>
   </g>
   <g id="PathCollection_5">
    <g clip-path="url(#pab1f404d2b)">
     <use xlink:href="#m6f19ac8889" x="295.744578" y="161.916279" style="stroke: #000000"/>
    </g>
   </g>
   <g id="PathCollection_6">
    <g clip-path="url(#pab1f404d2b)">
     <use xlink:href="#m6f19ac8889" x="500.448734" y="445.562791" style="stroke: #000000"/>
    </g>
   </g>
   <g id="PathCollection_7">
    <g clip-path="url(#pab1f404d2b)">
     <use xlink:href="#m6f19ac8889" x="159.209957" y="277.953488" style="stroke: #000000"/>
    </g>
   </g>
   <g id="PathCollection_8">
    <g clip-path="url(#pab1f404d2b)">
     <use xlink:href="#m6f19ac8889" x="692.777643" y="174.809302" style="stroke: #000000"/>
    </g>
   </g>
   <g id="PathCollection_9">
    <g clip-path="url(#pab1f404d2b)">
     <use xlink:href="#m6f19ac8889" x="304.925228" y="84.55814" style="stroke: #000000"/>
    </g>
   </g>
   <g id="PathCollection_10">
    <g clip-path="url(#pab1f404d2b)">
     <use xlink:href="#m6f19ac8889" x="552.341726" y="381.097674" style="stroke: #000000"/>
    </g>
   </g>
   <g id="PathCollection_11">
    <g clip-path="url(#pab1f404d2b)">
     <use xlink:href="#m6f19ac8889" x="202.5" y="252.167442" style="stroke: #000000"/>
    </g>
   </g>
   <g id="PathCollection_12">
    <g clip-path="url(#pab1f404d2b)">
     <use xlink:href="#m6f19ac8889" x="202.5" y="187.702326" style="stroke: #000000"/>
    </g>
   </g>
   <g id="PathCollection_13">
    <g clip-path="url(#pab1f404d2b)">
     <use xlink:href="#m6f19ac8889" x="715.995707" y="290.846512" style="stroke: #000000"/>
    </g>
   </g>
   <g id="PathCollection_14">
    <g clip-path="url(#pab1f404d2b)">
     <use xlink:href="#m6f19ac8889" x="720.049359" y="200.595349" style="stroke: #000000"/>
    </g>
   </g>
   <g id="PathCollection_15">
    <g clip-path="url(#pab1f404d2b)">
     <use xlink:href="#m6f19ac8889" x="760.5" y="200.595349" style="stroke: #000000"/>
    </g>
   </g>
   <g id="PathCollection_16">
    <g clip-path="url(#pab1f404d2b)">
     <use xlink:href="#m6f19ac8889" x="760.5" y="97.451163" style="stroke: #000000"/>
    </g>
   </g>
   <g id="text_4">
    <g id="patch_8">
     <path d="M 59.468742 351.470163 
L 113.294681 351.470163 
Q 120.494681 351.470163 120.494681 344.270163 
L 120.494681 314.781 
Q 120.494681 307.581 113.294681 307.581 
L 59.468742 307.581 
Q 52.268742 307.581 52.268742 314.781 
L 52.268742 344.270163 
Q 52.268742 351.470163 59.468742 351.470163 
z
" style="fill: #ffffff; stroke: #808080; stroke-width: 0.5; stroke-linejoin: miter"/>
    </g>
    <!-- $P_{t-1,c}^{b}$ -->
    <g transform="translate(59.468742 335.080883) scale(0.24 -0.24)">
     <defs>
      <path id="CMMI12-50" d="M 1894 2023 
L 2970 2023 
C 3853 2023 4736 2673 4736 3401 
C 4736 3898 4314 4352 3507 4352 
L 1530 4352 
C 1408 4352 1350 4352 1350 4231 
C 1350 4167 1408 4167 1504 4167 
C 1894 4167 1894 4116 1894 4046 
C 1894 4034 1894 3995 1869 3899 
L 1005 472 
C 947 249 934 185 486 185 
C 365 185 301 185 301 70 
C 301 0 358 0 397 0 
C 518 0 646 0 768 0 
L 1517 0 
C 1638 0 1773 0 1894 0 
C 1946 0 2016 0 2016 121 
C 2016 185 1958 185 1862 185 
C 1478 185 1472 230 1472 293 
C 1472 325 1478 369 1485 401 
L 1894 2023 
z
M 2355 3930 
C 2413 4167 2438 4167 2688 4167 
L 3322 4167 
C 3802 4167 4198 4013 4198 3535 
C 4198 3369 4115 2827 3821 2534 
C 3712 2419 3405 2176 2822 2176 
L 1920 2176 
L 2355 3930 
z
" transform="scale(0.015625)"/>
      <path id="CMMI12-62" d="M 1478 4257 
C 1485 4283 1498 4321 1498 4352 
C 1498 4416 1434 4416 1421 4416 
C 1414 4416 1184 4393 1069 4377 
C 960 4377 864 4358 749 4358 
C 595 4345 550 4339 550 4224 
C 550 4160 614 4160 678 4160 
C 1005 4160 1005 4103 1005 4040 
C 1005 3996 954 3811 928 3696 
L 774 3085 
C 710 2831 346 1387 320 1272 
C 288 1114 288 1005 288 922 
C 288 274 653 -64 1069 -64 
C 1811 -64 2579 888 2579 1814 
C 2579 2401 2246 2816 1766 2816 
C 1434 2816 1133 2542 1011 2414 
L 1478 4257 
z
M 1075 64 
C 870 64 646 217 646 715 
C 646 926 666 1047 781 1494 
C 800 1577 902 1986 928 2069 
C 941 2120 1318 2689 1754 2689 
C 2035 2689 2163 2408 2163 2076 
C 2163 1769 1984 1047 1824 715 
C 1664 370 1370 64 1075 64 
z
" transform="scale(0.015625)"/>
      <path id="CMMI12-74" d="M 1286 2566 
L 1875 2566 
C 1997 2566 2061 2566 2061 2681 
C 2061 2752 2022 2752 1894 2752 
L 1331 2752 
L 1568 3692 
C 1594 3781 1594 3794 1594 3840 
C 1594 3943 1510 4000 1427 4000 
C 1376 4000 1229 3981 1178 3775 
L 928 2752 
L 326 2752 
C 198 2752 141 2752 141 2630 
C 141 2566 186 2566 307 2566 
L 877 2566 
L 454 881 
C 403 658 384 594 384 511 
C 384 211 595 -64 954 -64 
C 1600 -64 1946 868 1946 912 
C 1946 951 1920 970 1882 970 
C 1869 970 1843 970 1830 944 
C 1824 938 1818 931 1773 829 
C 1638 511 1344 64 973 64 
C 781 64 768 224 768 364 
C 768 370 768 492 787 568 
L 1286 2566 
z
" transform="scale(0.015625)"/>
      <path id="CMSY10-0" d="M 4218 1472 
C 4326 1472 4442 1472 4442 1600 
C 4442 1728 4326 1728 4218 1728 
L 755 1728 
C 646 1728 531 1728 531 1600 
C 531 1472 646 1472 755 1472 
L 4218 1472 
z
" transform="scale(0.015625)"/>
      <path id="CMR17-31" d="M 1702 4058 
C 1702 4192 1696 4192 1606 4192 
C 1357 3916 979 3827 621 3827 
C 602 3827 570 3827 563 3808 
C 557 3795 557 3782 557 3648 
C 755 3648 1088 3686 1344 3839 
L 1344 461 
C 1344 236 1331 160 781 160 
L 589 160 
L 589 0 
C 896 0 1216 0 1523 0 
C 1830 0 2150 0 2458 0 
L 2458 160 
L 2266 160 
C 1715 160 1702 230 1702 458 
L 1702 4058 
z
" transform="scale(0.015625)"/>
      <path id="CMMI12-3b" d="M 1248 -31 
C 1248 343 1126 619 864 619 
C 659 619 557 453 557 313 
C 557 172 653 0 870 0 
C 954 0 1024 26 1082 83 
C 1094 96 1101 96 1107 96 
C 1120 96 1120 5 1120 -27 
C 1120 -240 1082 -659 710 -1080 
C 640 -1157 640 -1170 640 -1183 
C 640 -1216 672 -1248 704 -1248 
C 755 -1248 1248 -771 1248 -31 
z
" transform="scale(0.015625)"/>
      <path id="CMMI12-63" d="M 2502 2431 
C 2381 2431 2323 2431 2234 2355 
C 2195 2323 2125 2227 2125 2125 
C 2125 1997 2221 1920 2342 1920 
C 2496 1920 2669 2044 2669 2292 
C 2669 2588 2374 2816 1933 2816 
C 1094 2816 256 1903 256 996 
C 256 441 602 -64 1254 -64 
C 2125 -64 2675 622 2675 706 
C 2675 744 2637 776 2611 776 
C 2592 776 2586 770 2528 713 
C 2118 162 1510 64 1267 64 
C 826 64 685 446 685 764 
C 685 988 794 1605 1024 2039 
C 1190 2338 1536 2682 1939 2682 
C 2022 2682 2374 2682 2502 2431 
z
" transform="scale(0.015625)"/>
     </defs>
     <use xlink:href="#CMMI12-50" transform="scale(0.996264)"/>
     <use xlink:href="#CMMI12-62" transform="translate(76.425821 36.153639) scale(0.697382)"/>
     <use xlink:href="#CMMI12-74" transform="translate(62.877232 -24.740171) scale(0.697382)"/>
     <use xlink:href="#CMSY10-0" transform="translate(87.535542 -24.740171) scale(0.697382)"/>
     <use xlink:href="#CMR17-31" transform="translate(141.776535 -24.740171) scale(0.697382)"/>
     <use xlink:href="#CMMI12-3b" transform="translate(173.759717 -24.740171) scale(0.697382)"/>
     <use xlink:href="#CMMI12-63" transform="translate(192.72765 -24.740171) scale(0.697382)"/>
    </g>
   </g>
   <g id="text_5">
    <g id="patch_9">
     <path d="M 64.420227 272.131444 
L 118.246166 272.131444 
Q 125.446166 272.131444 125.446166 264.931444 
L 125.446166 239.40344 
Q 125.446166 232.20344 118.246166 232.20344 
L 64.420227 232.20344 
Q 57.220227 232.20344 57.220227 239.40344 
L 57.220227 264.931444 
Q 57.220227 272.131444 64.420227 272.131444 
z
" style="fill: #ffffff; stroke: #808080; stroke-width: 0.5; stroke-linejoin: miter"/>
    </g>
    <!-- $P_{t-1,c}^{a}$ -->
    <g transform="translate(64.420227 255.742164) scale(0.24 -0.24)">
     <defs>
      <path id="CMMI12-61" d="M 1926 760 
C 1894 651 1894 639 1805 517 
C 1664 338 1382 64 1082 64 
C 819 64 672 300 672 677 
C 672 1028 870 1743 992 2012 
C 1210 2459 1510 2689 1760 2689 
C 2182 2689 2266 2165 2266 2114 
C 2266 2108 2246 2024 2240 2012 
L 1926 760 
z
M 2336 2395 
C 2266 2561 2093 2816 1760 2816 
C 1037 2816 256 1884 256 939 
C 256 307 627 -64 1062 -64 
C 1414 -64 1715 211 1894 422 
C 1958 45 2259 -64 2451 -64 
C 2643 -64 2797 51 2912 281 
C 3014 498 3104 888 3104 913 
C 3104 945 3078 971 3040 971 
C 2982 971 2976 939 2950 843 
C 2854 466 2733 64 2470 64 
C 2285 64 2272 230 2272 358 
C 2272 505 2291 575 2349 824 
C 2394 984 2426 1124 2477 1309 
C 2714 2267 2771 2497 2771 2535 
C 2771 2625 2701 2695 2605 2695 
C 2400 2695 2349 2472 2336 2395 
z
" transform="scale(0.015625)"/>
     </defs>
     <use xlink:href="#CMMI12-50" transform="scale(0.996264)"/>
     <use xlink:href="#CMMI12-61" transform="translate(76.425821 36.153639) scale(0.697382)"/>
     <use xlink:href="#CMMI12-74" transform="translate(62.877232 -24.740171) scale(0.697382)"/>
     <use xlink:href="#CMSY10-0" transform="translate(87.535542 -24.740171) scale(0.697382)"/>
     <use xlink:href="#CMR17-31" transform="translate(141.776535 -24.740171) scale(0.697382)"/>
     <use xlink:href="#CMMI12-3b" transform="translate(173.759717 -24.740171) scale(0.697382)"/>
     <use xlink:href="#CMMI12-63" transform="translate(192.72765 -24.740171) scale(0.697382)"/>
    </g>
   </g>
   <g id="text_6">
    <g id="patch_10">
     <path d="M 177.956539 377.244306 
L 211.395732 377.244306 
Q 218.595732 377.244306 218.595732 370.044306 
L 218.595732 340.57895 
Q 218.595732 333.37895 211.395732 333.37895 
L 177.956539 333.37895 
Q 170.756539 333.37895 170.756539 340.57895 
L 170.756539 370.044306 
Q 170.756539 377.244306 177.956539 377.244306 
z
" style="fill: #ffffff; stroke: #808080; stroke-width: 0.5; stroke-linejoin: miter"/>
    </g>
    <!-- $P_{t,o}^{b}$ -->
    <g transform="translate(177.956539 360.878832) scale(0.24 -0.24)">
     <defs>
      <path id="CMMI12-6f" d="M 2918 1756 
C 2918 2363 2522 2816 1939 2816 
C 1094 2816 262 1897 262 996 
C 262 390 659 -64 1242 -64 
C 2093 -64 2918 856 2918 1756 
z
M 1248 64 
C 928 64 691 319 691 766 
C 691 1060 845 1712 1024 2031 
C 1312 2523 1670 2689 1933 2689 
C 2246 2689 2490 2433 2490 1986 
C 2490 1731 2355 1047 2112 658 
C 1850 230 1498 64 1248 64 
z
" transform="scale(0.015625)"/>
     </defs>
     <use xlink:href="#CMMI12-50" transform="scale(0.996264)"/>
     <use xlink:href="#CMMI12-62" transform="translate(76.425821 36.153639) scale(0.697382)"/>
     <use xlink:href="#CMMI12-74" transform="translate(62.877232 -24.62935) scale(0.697382)"/>
     <use xlink:href="#CMMI12-3b" transform="translate(87.535542 -24.62935) scale(0.697382)"/>
     <use xlink:href="#CMMI12-6f" transform="translate(106.503475 -24.62935) scale(0.697382)"/>
    </g>
   </g>
   <g id="text_7">
    <g id="patch_11">
     <path d="M 635.389745 299.886167 
L 668.003709 299.886167 
Q 675.203709 299.886167 675.203709 292.686167 
L 675.203709 263.22081 
Q 675.203709 256.02081 668.003709 256.02081 
L 635.389745 256.02081 
Q 628.189745 256.02081 628.189745 263.22081 
L 628.189745 292.686167 
Q 628.189745 299.886167 635.389745 299.886167 
z
" style="fill: #ffffff; stroke: #808080; stroke-width: 0.5; stroke-linejoin: miter"/>
    </g>
    <!-- $P_{t,c}^{b}$ -->
    <g transform="translate(635.389745 283.520693) scale(0.24 -0.24)">
     <use xlink:href="#CMMI12-50" transform="scale(0.996264)"/>
     <use xlink:href="#CMMI12-62" transform="translate(76.425821 36.153639) scale(0.697382)"/>
     <use xlink:href="#CMMI12-74" transform="translate(62.877232 -24.62935) scale(0.697382)"/>
     <use xlink:href="#CMMI12-3b" transform="translate(87.535542 -24.62935) scale(0.697382)"/>
     <use xlink:href="#CMMI12-63" transform="translate(106.503475 -24.62935) scale(0.697382)"/>
    </g>
   </g>
   <g id="text_8">
    <g id="patch_12">
     <path d="M 278.247205 158.80186 
L 313.241951 158.80186 
Q 320.441951 158.80186 320.441951 151.60186 
L 320.441951 121.275855 
Q 320.441951 114.075855 313.241951 114.075855 
L 278.247205 114.075855 
Q 271.047205 114.075855 271.047205 121.275855 
L 271.047205 151.60186 
Q 271.047205 158.80186 278.247205 158.80186 
z
" style="fill: #ffffff; stroke: #808080; stroke-width: 0.5; stroke-linejoin: miter"/>
    </g>
    <!-- $P_{t,h}^{b}$ -->
    <g transform="translate(278.247205 141.575738) scale(0.24 -0.24)">
     <defs>
      <path id="CMMI12-68" d="M 1798 4257 
C 1805 4283 1818 4321 1818 4352 
C 1818 4416 1754 4416 1741 4416 
C 1734 4416 1421 4388 1389 4380 
C 1280 4373 1184 4358 1069 4358 
C 909 4345 864 4339 864 4224 
C 864 4160 915 4160 1005 4160 
C 1318 4160 1325 4103 1325 4040 
C 1325 4002 1312 3951 1306 3932 
L 378 248 
C 352 152 352 140 352 101 
C 352 -38 461 -64 525 -64 
C 634 -64 717 19 749 89 
L 1037 1245 
C 1069 1386 1107 1520 1139 1660 
C 1210 1929 1210 1935 1331 2120 
C 1453 2305 1741 2689 2234 2689 
C 2490 2689 2579 2497 2579 2242 
C 2579 1884 2330 1188 2189 805 
C 2131 651 2099 568 2099 453 
C 2099 166 2298 -64 2605 -64 
C 3200 -64 3424 875 3424 913 
C 3424 945 3398 971 3360 971 
C 3302 971 3296 952 3264 843 
C 3117 332 2880 64 2624 64 
C 2560 64 2458 64 2458 269 
C 2458 436 2534 640 2560 710 
C 2675 1018 2963 1773 2963 2145 
C 2963 2528 2739 2816 2253 2816 
C 1888 2816 1568 2644 1306 2312 
L 1798 4257 
z
" transform="scale(0.015625)"/>
     </defs>
     <use xlink:href="#CMMI12-50" transform="scale(0.996264)"/>
     <use xlink:href="#CMMI12-62" transform="translate(76.425821 36.153639) scale(0.697382)"/>
     <use xlink:href="#CMMI12-74" transform="translate(62.877232 -28.21539) scale(0.697382)"/>
     <use xlink:href="#CMMI12-3b" transform="translate(87.535542 -28.21539) scale(0.697382)"/>
     <use xlink:href="#CMMI12-68" transform="translate(106.503475 -28.21539) scale(0.697382)"/>
    </g>
   </g>
   <g id="text_9">
    <g id="patch_13">
     <path d="M 485.227509 493.403215 
L 515.66996 493.403215 
Q 522.86996 493.403215 522.86996 486.203215 
L 522.86996 455.877209 
Q 522.86996 448.677209 515.66996 448.677209 
L 485.227509 448.677209 
Q 478.027509 448.677209 478.027509 455.877209 
L 478.027509 486.203215 
Q 478.027509 493.403215 485.227509 493.403215 
z
" style="fill: #ffffff; stroke: #808080; stroke-width: 0.5; stroke-linejoin: miter"/>
    </g>
    <!-- $P_{t,l}^{b}$ -->
    <g transform="translate(485.227509 476.177092) scale(0.24 -0.24)">
     <defs>
      <path id="CMMI12-6c" d="M 1626 4257 
C 1632 4282 1645 4320 1645 4352 
C 1645 4416 1581 4416 1568 4416 
C 1562 4416 1331 4393 1216 4377 
C 1107 4377 1011 4358 896 4358 
C 742 4345 698 4339 698 4224 
C 698 4160 762 4160 826 4160 
C 1152 4160 1152 4102 1152 4039 
C 1152 4014 1152 4001 1120 3887 
L 326 731 
C 307 661 294 610 294 509 
C 294 191 531 -64 858 -64 
C 1069 -64 1210 76 1312 274 
C 1421 483 1510 884 1510 909 
C 1510 941 1485 967 1446 967 
C 1389 967 1382 935 1357 840 
C 1242 401 1126 64 870 64 
C 678 64 678 267 678 357 
C 678 382 678 515 723 694 
L 1626 4257 
z
" transform="scale(0.015625)"/>
     </defs>
     <use xlink:href="#CMMI12-50" transform="scale(0.996264)"/>
     <use xlink:href="#CMMI12-62" transform="translate(76.425821 36.153639) scale(0.697382)"/>
     <use xlink:href="#CMMI12-74" transform="translate(62.877232 -28.21539) scale(0.697382)"/>
     <use xlink:href="#CMMI12-3b" transform="translate(87.535542 -28.21539) scale(0.697382)"/>
     <use xlink:href="#CMMI12-6c" transform="translate(106.503475 -28.21539) scale(0.697382)"/>
    </g>
   </g>
   <g id="text_10">
    <g id="patch_14">
     <path d="M 175.949957 297.905587 
L 209.38915 297.905587 
Q 216.58915 297.905587 216.58915 290.705587 
L 216.58915 265.20139 
Q 216.58915 258.00139 209.38915 258.00139 
L 175.949957 258.00139 
Q 168.749957 258.00139 168.749957 265.20139 
L 168.749957 290.705587 
Q 168.749957 297.905587 175.949957 297.905587 
z
" style="fill: #ffffff; stroke: #808080; stroke-width: 0.5; stroke-linejoin: miter"/>
    </g>
    <!-- $P_{t,o}^{a}$ -->
    <g transform="translate(175.949957 281.540113) scale(0.24 -0.24)">
     <use xlink:href="#CMMI12-50" transform="scale(0.996264)"/>
     <use xlink:href="#CMMI12-61" transform="translate(76.425821 36.153639) scale(0.697382)"/>
     <use xlink:href="#CMMI12-74" transform="translate(62.877232 -24.62935) scale(0.697382)"/>
     <use xlink:href="#CMMI12-3b" transform="translate(87.535542 -24.62935) scale(0.697382)"/>
     <use xlink:href="#CMMI12-6f" transform="translate(106.503475 -24.62935) scale(0.697382)"/>
    </g>
   </g>
   <g id="text_11">
    <g id="patch_15">
     <path d="M 643.423678 194.761401 
L 676.037643 194.761401 
Q 683.237643 194.761401 683.237643 187.561401 
L 683.237643 162.057204 
Q 683.237643 154.857204 676.037643 154.857204 
L 643.423678 154.857204 
Q 636.223678 154.857204 636.223678 162.057204 
L 636.223678 187.561401 
Q 636.223678 194.761401 643.423678 194.761401 
z
" style="fill: #ffffff; stroke: #808080; stroke-width: 0.5; stroke-linejoin: miter"/>
    </g>
    <!-- $P_{t,c}^{a}$ -->
    <g transform="translate(643.423678 178.395927) scale(0.24 -0.24)">
     <use xlink:href="#CMMI12-50" transform="scale(0.996264)"/>
     <use xlink:href="#CMMI12-61" transform="translate(76.425821 36.153639) scale(0.697382)"/>
     <use xlink:href="#CMMI12-74" transform="translate(62.877232 -24.62935) scale(0.697382)"/>
     <use xlink:href="#CMMI12-3b" transform="translate(87.535542 -24.62935) scale(0.697382)"/>
     <use xlink:href="#CMMI12-63" transform="translate(106.503475 -24.62935) scale(0.697382)"/>
    </g>
   </g>
   <g id="text_12">
    <g id="patch_16">
     <path d="M 287.427855 81.443721 
L 322.422601 81.443721 
Q 329.622601 81.443721 329.622601 74.243721 
L 329.622601 47.878875 
Q 329.622601 40.678875 322.422601 40.678875 
L 287.427855 40.678875 
Q 280.227855 40.678875 280.227855 47.878875 
L 280.227855 74.243721 
Q 280.227855 81.443721 287.427855 81.443721 
z
" style="fill: #ffffff; stroke: #808080; stroke-width: 0.5; stroke-linejoin: miter"/>
    </g>
    <!-- $P_{t,h}^{a}$ -->
    <g transform="translate(287.427855 64.217598) scale(0.24 -0.24)">
     <use xlink:href="#CMMI12-50" transform="scale(0.996264)"/>
     <use xlink:href="#CMMI12-61" transform="translate(76.425821 36.153639) scale(0.697382)"/>
     <use xlink:href="#CMMI12-74" transform="translate(62.877232 -28.21539) scale(0.697382)"/>
     <use xlink:href="#CMMI12-3b" transform="translate(87.535542 -28.21539) scale(0.697382)"/>
     <use xlink:href="#CMMI12-68" transform="translate(106.503475 -28.21539) scale(0.697382)"/>
    </g>
   </g>
   <g id="text_13">
    <g id="patch_17">
     <path d="M 537.120501 424.976939 
L 567.562952 424.976939 
Q 574.762952 424.976939 574.762952 417.776939 
L 574.762952 391.412093 
Q 574.762952 384.212093 567.562952 384.212093 
L 537.120501 384.212093 
Q 529.920501 384.212093 529.920501 391.412093 
L 529.920501 417.776939 
Q 529.920501 424.976939 537.120501 424.976939 
z
" style="fill: #ffffff; stroke: #808080; stroke-width: 0.5; stroke-linejoin: miter"/>
    </g>
    <!-- $P_{t,l}^{a}$ -->
    <g transform="translate(537.120501 407.750817) scale(0.24 -0.24)">
     <use xlink:href="#CMMI12-50" transform="scale(0.996264)"/>
     <use xlink:href="#CMMI12-61" transform="translate(76.425821 36.153639) scale(0.697382)"/>
     <use xlink:href="#CMMI12-74" transform="translate(62.877232 -28.21539) scale(0.697382)"/>
     <use xlink:href="#CMMI12-3b" transform="translate(87.535542 -28.21539) scale(0.697382)"/>
     <use xlink:href="#CMMI12-6c" transform="translate(106.503475 -28.21539) scale(0.697382)"/>
    </g>
   </g>
   <g id="text_14">
    <g id="patch_18">
     <path d="M 219.24 272.472906 
L 244.550101 272.472906 
Q 251.750101 272.472906 251.750101 265.272906 
L 251.750101 239.061978 
Q 251.750101 231.861978 244.550101 231.861978 
L 219.24 231.861978 
Q 212.04 231.861978 212.04 239.061978 
L 212.04 265.272906 
Q 212.04 272.472906 219.24 272.472906 
z
" style="fill: #ffffff; stroke: #808080; stroke-width: 0.5; stroke-linejoin: miter"/>
    </g>
    <!-- $P_{t}^{b}$ -->
    <g transform="translate(219.24 259.36186) scale(0.24 -0.24)">
     <use xlink:href="#CMMI12-50" transform="scale(0.996264)"/>
     <use xlink:href="#CMMI12-62" transform="translate(76.425821 36.153639) scale(0.697382)"/>
     <use xlink:href="#CMMI12-74" transform="translate(62.877232 -24.62935) scale(0.697382)"/>
    </g>
   </g>
   <g id="text_15">
    <g id="patch_19">
     <path d="M 219.24 206.02721 
L 246.185068 206.02721 
Q 253.385068 206.02721 253.385068 198.82721 
L 253.385068 176.577441 
Q 253.385068 169.377441 246.185068 169.377441 
L 219.24 169.377441 
Q 212.04 169.377441 212.04 176.577441 
L 212.04 198.82721 
Q 212.04 206.02721 219.24 206.02721 
z
" style="fill: #ffffff; stroke: #808080; stroke-width: 0.5; stroke-linejoin: miter"/>
    </g>
    <!-- $P_{t}^{a}$ -->
    <g transform="translate(219.24 192.916164) scale(0.24 -0.24)">
     <use xlink:href="#CMMI12-50" transform="scale(0.996264)"/>
     <use xlink:href="#CMMI12-61" transform="translate(76.425821 36.153639) scale(0.697382)"/>
     <use xlink:href="#CMMI12-74" transform="translate(62.877232 -24.62935) scale(0.697382)"/>
    </g>
   </g>
   <g id="text_16">
    <g id="patch_20">
     <path d="M 732.735707 312.791093 
L 787.115492 312.791093 
Q 794.315492 312.791093 794.315492 305.591093 
L 794.315492 276.10193 
Q 794.315492 268.90193 787.115492 268.90193 
L 732.735707 268.90193 
Q 725.535707 268.90193 725.535707 276.10193 
L 725.535707 305.591093 
Q 725.535707 312.791093 732.735707 312.791093 
z
" style="fill: #ffffff; stroke: #808080; stroke-width: 0.5; stroke-linejoin: miter"/>
    </g>
    <!-- $P_{t+1,o}^{b}$ -->
    <g transform="translate(732.735707 296.401813) scale(0.24 -0.24)">
     <defs>
      <path id="CMR17-2b" d="M 2413 1472 
L 4109 1472 
C 4198 1472 4307 1472 4307 1580 
C 4307 1695 4205 1695 4109 1695 
L 2413 1695 
L 2413 3386 
C 2413 3475 2413 3584 2304 3584 
C 2189 3584 2189 3482 2189 3386 
L 2189 1695 
L 493 1695 
C 403 1695 294 1695 294 1587 
C 294 1472 397 1472 493 1472 
L 2189 1472 
L 2189 -218 
C 2189 -307 2189 -416 2298 -416 
C 2413 -416 2413 -314 2413 -218 
L 2413 1472 
z
" transform="scale(0.015625)"/>
     </defs>
     <use xlink:href="#CMMI12-50" transform="scale(0.996264)"/>
     <use xlink:href="#CMMI12-62" transform="translate(76.425821 36.153639) scale(0.697382)"/>
     <use xlink:href="#CMMI12-74" transform="translate(62.877232 -24.740171) scale(0.697382)"/>
     <use xlink:href="#CMR17-2b" transform="translate(87.535542 -24.740171) scale(0.697382)"/>
     <use xlink:href="#CMR17-31" transform="translate(137.735673 -24.740171) scale(0.697382)"/>
     <use xlink:href="#CMMI12-3b" transform="translate(169.718855 -24.740171) scale(0.697382)"/>
     <use xlink:href="#CMMI12-6f" transform="translate(188.686788 -24.740171) scale(0.697382)"/>
    </g>
   </g>
   <g id="text_17">
    <g id="patch_21">
     <path d="M 736.789359 220.559351 
L 791.169145 220.559351 
Q 798.369145 220.559351 798.369145 213.359351 
L 798.369145 187.831347 
Q 798.369145 180.631347 791.169145 180.631347 
L 736.789359 180.631347 
Q 729.589359 180.631347 729.589359 187.831347 
L 729.589359 213.359351 
Q 729.589359 220.559351 736.789359 220.559351 
z
" style="fill: #ffffff; stroke: #808080; stroke-width: 0.5; stroke-linejoin: miter"/>
    </g>
    <!-- $P_{t+1,o}^{a}$ -->
    <g transform="translate(736.789359 204.170071) scale(0.24 -0.24)">
     <use xlink:href="#CMMI12-50" transform="scale(0.996264)"/>
     <use xlink:href="#CMMI12-61" transform="translate(76.425821 36.153639) scale(0.697382)"/>
     <use xlink:href="#CMMI12-74" transform="translate(62.877232 -24.740171) scale(0.697382)"/>
     <use xlink:href="#CMR17-2b" transform="translate(87.535542 -24.740171) scale(0.697382)"/>
     <use xlink:href="#CMR17-31" transform="translate(137.735673 -24.740171) scale(0.697382)"/>
     <use xlink:href="#CMMI12-3b" transform="translate(169.718855 -24.740171) scale(0.697382)"/>
     <use xlink:href="#CMMI12-6f" transform="translate(188.686788 -24.740171) scale(0.697382)"/>
    </g>
   </g>
   <g id="text_18">
    <g id="patch_22">
     <path d="M 777.24 221.551951 
L 819.189121 221.551951 
Q 826.389121 221.551951 826.389121 214.351951 
L 826.389121 186.838747 
Q 826.389121 179.638747 819.189121 179.638747 
L 777.24 179.638747 
Q 770.04 179.638747 770.04 186.838747 
L 770.04 214.351951 
Q 770.04 221.551951 777.24 221.551951 
z
" style="fill: #ffffff; stroke: #808080; stroke-width: 0.5; stroke-linejoin: miter"/>
    </g>
    <!-- $P_{t+1}^{b}$ -->
    <g transform="translate(777.24 207.138629) scale(0.24 -0.24)">
     <use xlink:href="#CMMI12-50" transform="scale(0.996264)"/>
     <use xlink:href="#CMMI12-62" transform="translate(76.425821 36.153639) scale(0.697382)"/>
     <use xlink:href="#CMMI12-74" transform="translate(62.877232 -24.740171) scale(0.697382)"/>
     <use xlink:href="#CMR17-2b" transform="translate(87.535542 -24.740171) scale(0.697382)"/>
     <use xlink:href="#CMR17-31" transform="translate(137.735673 -24.740171) scale(0.697382)"/>
    </g>
   </g>
   <g id="text_19">
    <g id="patch_23">
     <path d="M 777.24 116.427186 
L 819.189121 116.427186 
Q 826.389121 116.427186 826.389121 109.227186 
L 826.389121 85.67514 
Q 826.389121 78.47514 819.189121 78.47514 
L 777.24 78.47514 
Q 770.04 78.47514 770.04 85.67514 
L 770.04 109.227186 
Q 770.04 116.427186 777.24 116.427186 
z
" style="fill: #ffffff; stroke: #808080; stroke-width: 0.5; stroke-linejoin: miter"/>
    </g>
    <!-- $P_{t+1}^{a}$ -->
    <g transform="translate(777.24 102.013864) scale(0.24 -0.24)">
     <use xlink:href="#CMMI12-50" transform="scale(0.996264)"/>
     <use xlink:href="#CMMI12-61" transform="translate(76.425821 36.153639) scale(0.697382)"/>
     <use xlink:href="#CMMI12-74" transform="translate(62.877232 -24.740171) scale(0.697382)"/>
     <use xlink:href="#CMR17-2b" transform="translate(87.535542 -24.740171) scale(0.697382)"/>
     <use xlink:href="#CMR17-31" transform="translate(137.735673 -24.740171) scale(0.697382)"/>
    </g>
   </g>
  </g>
 </g>
 <defs>
  <clipPath id="pab1f404d2b">
   <rect x="7.2" y="7.2" width="837" height="554.4"/>
  </clipPath>
 </defs>
</svg>
